<svg xmlns="http://www.w3.org/2000/svg" viewBox="0 0 320 200">
  <rect width="320" height="200" rx="24" fill="#eef6ff"/>
  <path d="M160 34c-44 0-54 18-54 44v22h78c16 0 28 12 28 28v38h16c36 0 54-18 54-54 0-40-22-58-64-58h-32V34h-26z" fill="#6557ff"/>
  <path d="M160 166c44 0 54-18 54-44v-22h-78c-16 0-28-12-28-28V34H92c-36 0-54 18-54 54 0 40 22 58 64 58h32v20h26z" fill="#10a594"/>
  <circle cx="138" cy="62" r="7" fill="#fff"/>
  <circle cx="182" cy="138" r="7" fill="#fff"/>
  <path d="M138 100h44" stroke="#fff" stroke-width="8" stroke-linecap="round"/>
</svg>
