<svg xmlns="http://www.w3.org/2000/svg" viewBox="0 0 320 200">
  <rect width="320" height="200" rx="24" fill="#fff4ef"/>
  <path d="M160 34l86 30v58c0 45-37 70-86 88-49-18-86-43-86-88V64l86-30z" fill="#ff6b55"/>
  <path d="M160 56l58 20v42c0 28-23 46-58 60-35-14-58-32-58-60V76l58-20z" fill="#fff"/>
  <rect x="128" y="102" width="64" height="48" rx="10" fill="#17211d"/>
  <path d="M142 102V88a18 18 0 0136 0v14" fill="none" stroke="#17211d" stroke-width="12" stroke-linecap="round"/>
  <circle cx="160" cy="126" r="6" fill="#f6bd3d"/>
</svg>
